<svg xmlns="http://www.w3.org/2000/svg" width="99" height="30" viewBox="0 0 99 30" fill="none"><path d="M18.5691 16.2042C17.445 13.3716 16.3342 10.5769 15.2034 7.7266C14.9924 8.27977 14.8013 8.78407 14.6081 9.28837C13.6106 11.8965 12.6131 14.5047 11.6156 17.1128C11.2268 18.1258 10.8336 19.1367 10.4537 20.1542C10.3626 20.3985 10.276 20.4874 9.96938 20.4585C8.8697 20.3563 7.80556 20.1142 6.76586 19.7476C6.1527 19.5299 5.56398 19.2544 4.99081 18.9478C4.84863 18.8723 4.84418 18.799 4.90195 18.6546C6.37708 15.0578 7.84777 11.4566 9.31624 7.85767C10.2115 5.66052 11.1046 3.46337 11.9932 1.26178C12.0555 1.10627 12.1288 1.05518 12.2976 1.05518C14.2682 1.06184 16.2409 1.06184 18.2115 1.05518C18.3803 1.05518 18.4514 1.11516 18.5136 1.26623C19.7066 4.11874 20.9062 6.97126 22.1081 9.82155C22.1659 9.95929 22.1392 10.0593 22.0881 10.1881C21.2439 12.3097 20.0732 14.2403 18.698 16.0553C18.6669 16.0975 18.6269 16.1331 18.5647 16.2042H18.5691Z" fill="#262624"/><path d="M31.5593 2.44141C31.015 3.41446 30.8529 4.43195 30.8506 5.49387C30.8462 6.54912 31.015 7.57771 31.2927 8.60853C30.6285 8.65518 29.9998 8.80181 29.4177 9.11949C28.5624 9.58825 27.8959 10.2681 27.2939 11.0145C26.0254 12.5874 25.0701 14.3669 23.9926 16.0664C23.375 17.0417 22.7241 17.9903 21.9976 18.8878C21.2134 19.8542 20.2248 20.574 19.1918 21.2405C17.4234 22.3779 15.5106 23.1621 13.449 23.5731C12.2804 23.8064 11.0919 23.8686 9.90775 23.7864C7.81279 23.6376 5.85558 23.0333 4.1183 21.8203C2.08555 20.4029 0.790361 18.4813 0.234965 16.0708C0.00391972 15.0756 -0.0316256 14.0603 0.0216924 13.045C0.106113 13.0295 0.101669 13.085 0.114999 13.1383C0.599305 15.0422 1.55014 16.6751 3.01639 17.9836C4.39377 19.2122 6.01997 19.9875 7.80168 20.4451C8.64811 20.6629 9.50564 20.7873 10.3809 20.8317C12.6714 20.9517 14.7086 20.3007 16.5059 18.89C17.5011 18.108 18.3342 17.1661 19.0807 16.153C20.1026 14.7623 21.0779 13.3405 21.7866 11.7565C22.3064 10.5968 22.8129 9.43051 23.4039 8.30195C24.0415 7.08452 24.7835 5.9404 25.7676 4.97179C27.0473 3.70993 28.578 2.91905 30.353 2.60358C30.7396 2.53471 31.1283 2.48139 31.5593 2.44141Z" fill="#2987C5"/><path d="M98.9972 29.2848C97.7287 29.2848 96.4957 29.2848 95.2628 29.2848C95.1295 29.2848 95.1095 29.2026 95.0784 29.107C94.9362 28.6738 94.7918 28.2428 94.6407 27.7941C93.8409 28.5094 92.9701 29.087 91.937 29.3559C90.1331 29.8268 88.387 29.7513 86.8141 28.625C85.8055 27.9029 85.3078 26.8943 85.2701 25.6503C85.2412 24.6927 85.4611 23.8219 86.0698 23.0621C86.5386 22.4756 87.1384 22.0691 87.8249 21.7936C88.7735 21.4137 89.771 21.216 90.7707 21.0294C91.8993 20.8183 93.0278 20.605 94.1186 20.2407C94.2764 20.1874 94.3541 20.1252 94.3341 19.9519C94.303 19.672 94.2964 19.3898 94.2586 19.1099C94.1742 18.4612 93.7076 18.1657 93.15 18.0147C92.3747 17.8058 91.5794 17.7881 90.7929 17.9613C90.0709 18.1191 89.6133 18.5989 89.3489 19.2654C89.2534 19.5098 89.1734 19.6164 88.8668 19.552C87.8538 19.3454 86.8318 19.181 85.8099 19.0144C85.6522 18.9877 85.67 18.9277 85.7033 18.8278C86.3253 16.9061 87.5361 15.6331 89.5799 15.2177C90.8151 14.9666 92.057 14.9555 93.2989 15.0266C94.2808 15.0822 95.2539 15.2466 96.1492 15.7064C97.2089 16.2507 97.8442 17.0771 98.0197 18.2812C98.2308 19.7364 98.1708 21.196 98.1486 22.6556C98.1286 23.9041 98.0886 25.1548 98.1753 26.4011C98.2397 27.3364 98.4796 28.2317 98.9106 29.0693C98.9373 29.1226 98.9573 29.1826 98.9995 29.2825L98.9972 29.2848ZM94.3319 23.3265C94.3319 23.1487 94.3297 22.971 94.3319 22.7955C94.3341 22.66 94.3186 22.6111 94.152 22.6578C93.6988 22.7888 93.2411 22.8977 92.7813 22.9999C91.9104 23.1954 91.0306 23.3442 90.1998 23.6886C89.42 24.0129 89.129 24.5928 89.1734 25.1904C89.2334 26.0124 89.7021 26.5789 90.4841 26.8344C91.4239 27.1409 92.2969 26.9121 93.1212 26.4145C93.7188 26.0546 94.112 25.5503 94.2164 24.8527C94.2919 24.3484 94.3452 23.8374 94.3297 23.3242L94.3319 23.3265Z" fill="#262624"/><path d="M48.5328 23.3731C47.0044 23.3731 45.4782 23.3731 43.9497 23.3731C43.8142 23.3731 43.6853 23.3442 43.7031 23.5663C43.8075 24.8482 44.263 26.0234 45.6781 26.5899C46.5912 26.9543 47.5198 26.9454 48.3596 26.3389C48.8039 26.0167 49.0527 25.548 49.2349 25.0459C49.2948 24.8815 49.3237 24.8171 49.5326 24.8549C50.6211 25.0504 51.7142 25.2125 52.8027 25.3947C53.2204 25.4636 53.2093 25.4725 53.0138 25.9168C52.1429 27.8829 50.6522 29.0648 48.5351 29.4469C46.8289 29.7557 45.1449 29.6957 43.5254 29.0292C41.7437 28.2939 40.6618 26.9209 40.0842 25.117C39.7309 24.0107 39.6509 22.8665 39.7198 21.7202C39.8131 20.1495 40.2463 18.6811 41.2305 17.4214C42.2013 16.1796 43.4454 15.3709 45.0205 15.1154C46.6734 14.8488 48.2862 14.9599 49.808 15.7041C51.4253 16.495 52.3829 17.8458 52.9205 19.5208C53.1871 20.3517 53.3204 21.2092 53.3581 22.0845C53.3715 22.4111 53.3915 22.7377 53.4026 23.0665C53.4092 23.302 53.3381 23.3819 53.0871 23.3797C51.5675 23.3664 50.0502 23.3731 48.5306 23.3731H48.5328ZM46.6356 21.0848H49.0571C49.3489 21.0848 49.4844 20.9449 49.4637 20.6649C49.4615 20.6294 49.4659 20.5939 49.4637 20.5583C49.377 19.8963 49.1882 19.272 48.7195 18.7699C48.0641 18.0679 47.2599 17.7702 46.2957 17.8835C45.3404 17.9946 44.6495 18.4833 44.1719 19.3009C43.8786 19.803 43.8297 20.3628 43.7609 20.9204C43.7364 21.1093 43.8631 21.0848 43.9764 21.0848C44.8628 21.0848 45.7492 21.0848 46.6356 21.0848Z" fill="#262624"/><path d="M79.2348 23.3731C77.7175 23.3731 76.1979 23.3798 74.6806 23.3665C74.4362 23.3665 74.3873 23.4353 74.4007 23.6619C74.4851 25.1082 75.2449 26.3056 76.6356 26.6855C77.5464 26.9343 78.4328 26.8877 79.186 26.2079C79.557 25.8724 79.7725 25.4414 79.9368 24.986C79.9902 24.8416 80.0213 24.8283 80.1723 24.8527C81.3409 25.046 82.5139 25.2215 83.6847 25.3992C83.8335 25.4214 83.8668 25.4636 83.8068 25.6236C83.036 27.6186 81.6208 28.8738 79.5436 29.3914C78.615 29.6225 77.6686 29.6491 76.7244 29.5936C75.4204 29.5158 74.1763 29.2026 73.0944 28.4228C71.8481 27.5275 71.0749 26.3079 70.6817 24.8394C70.3596 23.6397 70.344 22.4201 70.4618 21.1915C70.5906 19.8608 71.0172 18.6434 71.8081 17.5637C72.7745 16.2463 74.0452 15.3976 75.6692 15.1199C77.2643 14.8467 78.8283 14.9511 80.319 15.6198C81.683 16.2307 82.6339 17.2682 83.2515 18.6123C83.6958 19.5787 83.9179 20.5984 84.0112 21.6581C84.0534 22.1557 84.0268 22.6489 84.0579 23.1421C84.069 23.3309 84.0068 23.3776 83.8224 23.3776C82.2962 23.3709 80.7677 23.3731 79.2415 23.3731H79.2348ZM77.3043 21.0849C78.1729 21.0849 79.0415 21.0805 79.9124 21.0893C80.0968 21.0893 80.1834 21.0649 80.1657 20.8494C80.1479 20.6028 80.1035 20.3629 80.0568 20.123C79.7236 18.419 78.0929 17.5015 76.4801 17.9769C75.1693 18.3635 74.5051 19.4698 74.454 20.8383C74.4473 21.0316 74.4917 21.096 74.6983 21.0916C75.567 21.0782 76.4356 21.0871 77.3065 21.0871L77.3043 21.0849Z" fill="#262624"/><path d="M58.7863 17.2082C59.2373 16.7417 59.7016 16.3218 60.2237 15.973C61.1101 15.3798 62.0854 15.0577 63.1584 15.0066C64.2137 14.9555 65.2334 15.0644 66.1864 15.5487C67.3972 16.1663 68.1259 17.1327 68.3325 18.4923C68.4413 19.201 68.4902 19.9119 68.488 20.6272C68.4813 23.422 68.4835 26.2167 68.4902 29.0115C68.4902 29.2314 68.4391 29.2914 68.2147 29.2892C67.095 29.2758 65.9776 29.2758 64.8579 29.2892C64.6291 29.2914 64.5869 29.2203 64.5869 29.007C64.5958 27.0098 64.5869 25.0148 64.5935 23.0176C64.5958 21.9979 64.5647 20.9804 64.4869 19.9652C64.3714 18.4856 63.3384 17.7458 61.9121 17.8747C60.9013 17.9658 60.0971 18.399 59.5661 19.2809C59.2884 19.743 59.2018 20.2673 59.1618 20.7938C58.9441 23.5197 59.0973 26.25 59.0596 28.9804C59.0574 29.2136 59.0129 29.2936 58.7597 29.2892C57.6511 29.2736 56.5403 29.2781 55.4295 29.287C55.2362 29.287 55.1562 29.2603 55.1562 29.0337C55.1629 24.5439 55.1629 20.054 55.1562 15.5642C55.1562 15.3532 55.2251 15.3221 55.4117 15.3243C56.4603 15.3332 57.5067 15.3332 58.5553 15.3243C58.7441 15.3243 58.793 15.3754 58.7908 15.5598C58.7797 16.1085 58.7863 16.6572 58.7863 17.2037V17.2082Z" fill="#262624"/><path d="M35.553 21.8296C35.553 22.7693 35.5618 23.7112 35.5485 24.651C35.5418 25.0242 35.5885 25.393 35.6129 25.764C35.6463 26.2949 36.2083 26.626 36.8348 26.506C37.2214 26.4305 37.6079 26.3594 37.9767 26.2083C38.0811 26.1661 38.1544 26.1483 38.1722 26.3238C38.2455 27.0503 38.3588 27.7723 38.4255 28.4988C38.481 29.0964 38.4677 29.1186 37.9145 29.2719C36.5638 29.6429 35.1953 29.7939 33.8246 29.3918C32.6116 29.0364 31.954 28.1944 31.7629 26.9503C31.6407 26.1505 31.6363 25.3463 31.623 24.5443C31.5941 22.556 31.6096 20.5677 31.6185 18.5816C31.6185 18.3528 31.5563 18.3017 31.3386 18.3083C30.9032 18.3261 30.4677 18.3083 30.0323 18.315C29.8968 18.315 29.8457 18.2795 29.8457 18.1351C29.8501 17.2575 29.8524 16.3778 29.8457 15.5003C29.8457 15.3514 29.9035 15.327 30.0345 15.327C30.4877 15.3336 30.9409 15.3225 31.3941 15.3336C31.5674 15.3381 31.6185 15.2848 31.6163 15.1115C31.6074 14.3495 31.6163 13.5853 31.6096 12.821C31.6096 12.6322 31.6319 12.5544 31.8629 12.5389C32.6071 12.4878 33.3536 12.5478 34.0978 12.4967C34.5044 12.47 34.9109 12.4656 35.3175 12.4522C35.5019 12.4456 35.5596 12.4945 35.5574 12.6855C35.5463 13.4831 35.5574 14.2828 35.5485 15.0826C35.5463 15.2759 35.5863 15.3403 35.7929 15.3359C36.5038 15.3225 37.2147 15.3359 37.9234 15.327C38.0967 15.327 38.17 15.3536 38.1678 15.5536C38.1567 16.4044 38.1589 17.2575 38.1678 18.1084C38.1678 18.2728 38.1233 18.3194 37.9589 18.3172C37.248 18.3083 36.5371 18.3217 35.8284 18.3083C35.6107 18.3039 35.5441 18.3528 35.5485 18.5816C35.5618 19.6635 35.5552 20.7476 35.5552 21.8296H35.553Z" fill="#262624"/><path d="M30.2752 29.285C28.6179 29.285 27.0028 29.285 25.3855 29.285C24.9146 29.285 24.4436 29.2761 23.9748 29.2894C23.8104 29.2939 23.7371 29.2294 23.6816 29.0917C22.6308 26.4391 21.5777 23.7866 20.5203 21.1362C20.4425 20.9429 20.4203 20.8252 20.6313 20.6741C21.931 19.741 22.8418 18.457 23.7216 17.1529C24.0148 16.7175 24.2925 16.2709 24.6035 15.7866C26.4985 20.2964 28.378 24.7729 30.273 29.2872L30.2752 29.285Z" fill="#262624"/><path d="M3.76372 29.285C2.77733 29.285 1.79317 29.2828 0.806786 29.2873C0.631281 29.2873 0.575741 29.2673 0.653497 29.0762C1.60656 26.7502 2.55517 24.4242 3.49935 22.0938C3.55711 21.9494 3.58155 21.8938 3.74594 22.0116C5.12999 22.9979 6.67399 23.6155 8.33574 23.9488C8.44682 23.971 8.56901 24.0043 8.6712 23.9999C8.98666 23.9866 8.93557 24.1176 8.85559 24.3265C8.26243 25.8616 7.67149 27.3989 7.0961 28.9407C6.99835 29.2028 6.87394 29.3006 6.58513 29.2939C5.64318 29.2717 4.70345 29.285 3.7615 29.285H3.76372Z" fill="#262624"/><path d="M34.0562 5.34733C34.0851 6.10489 34.1295 6.86023 34.4872 7.55337C34.876 8.30426 35.5113 8.6997 36.3378 8.84189C36.9354 8.9463 37.4974 8.86632 38.0306 8.59751C38.6504 8.28427 39.0148 7.74442 39.2147 7.10461C39.2991 6.83579 39.3902 6.82691 39.6257 6.90688C40.0723 7.05795 40.5321 7.17125 40.9875 7.29788C41.1342 7.33787 41.2119 7.39341 41.1453 7.57336C40.5721 9.10403 39.5035 10.0215 37.8707 10.2793C36.6799 10.4659 35.5247 10.3837 34.4516 9.81938C33.1409 9.13069 32.3967 8.01546 32.1434 6.56254C31.959 5.50951 32.0123 4.47425 32.3567 3.4612C32.8521 2.01051 33.8274 1.02635 35.3069 0.617574C36.7199 0.226575 38.1261 0.268786 39.4613 0.96192C40.2655 1.37958 40.7898 2.03939 41.1075 2.87915C41.1719 3.05021 41.1253 3.10131 40.9764 3.13241C40.4544 3.24127 39.9301 3.34346 39.408 3.46343C39.288 3.49231 39.2458 3.47231 39.2036 3.35901C38.7571 2.16158 37.6285 1.78169 36.6355 1.86833C35.3247 1.98163 34.4561 2.76363 34.2139 3.95884C34.1206 4.41871 34.0518 4.87858 34.0562 5.34733Z" fill="#2987C5"/><path d="M0.125537 12.0145C0.198849 10.0706 0.81645 8.34002 2.07609 6.84489C3.40682 5.26534 5.12633 4.26563 7.01467 3.51695C8.16546 3.06153 9.36067 2.75939 10.5692 2.50835C10.627 2.49725 10.6914 2.50835 10.778 2.50835C10.4626 3.23926 10.156 3.95461 9.84497 4.66551C9.64503 5.12316 9.4051 5.56748 9.25181 6.04068C9.14518 6.37169 8.94745 6.46278 8.64976 6.49388C7.23239 6.64273 5.92832 7.14258 4.68645 7.81128C3.46458 8.46665 2.36934 9.29974 1.42516 10.3217C0.940859 10.846 0.505428 11.408 0.121094 12.0167L0.125537 12.0145Z" fill="#2987C5"/><path d="M70.0841 4.9363C70.404 3.93881 71.0927 3.38785 72.0791 3.21013C73.0611 3.0324 74.0519 3.02129 75.0183 3.29899C76.2646 3.65667 76.4379 4.2876 76.4734 5.21622C76.5112 6.20927 76.4845 7.20454 76.4823 8.19759C76.4823 8.8263 76.5267 9.44834 76.8 10.0282C76.8711 10.1815 76.8311 10.2192 76.6667 10.2148C76.2046 10.2059 75.7425 10.2059 75.2804 10.2148C75.1294 10.217 75.0627 10.1704 75.0227 10.0215C74.965 9.80379 74.9161 9.46833 74.7783 9.41724C74.5984 9.35059 74.4229 9.64384 74.2385 9.77047C73.1588 10.5169 71.6326 10.5725 70.6262 9.89266C69.511 9.13732 69.5421 7.52 70.6862 6.81132C71.2527 6.46031 71.8947 6.35145 72.5301 6.22926C73.1855 6.10485 73.8408 5.99155 74.4807 5.8005C74.614 5.76051 74.6939 5.70497 74.6739 5.54501C74.6562 5.40505 74.6784 5.26065 74.6584 5.12069C74.594 4.65194 74.2541 4.45866 73.8475 4.38312C73.4498 4.30981 73.0411 4.30093 72.6367 4.38312C72.2457 4.46532 71.9769 4.70525 71.8036 5.05404C71.7437 5.17623 71.697 5.21178 71.5459 5.18067C71.0661 5.08292 70.5796 5.01628 70.0841 4.9363ZM74.6717 6.74023C74.414 6.80243 74.1763 6.86019 73.9386 6.91795C73.361 7.05791 72.7611 7.10901 72.2169 7.36894C71.6104 7.65774 71.4837 8.38642 71.9547 8.86184C72.3457 9.25728 72.8234 9.3106 73.3454 9.21063C73.963 9.09289 74.5162 8.6308 74.6162 8.12427C74.7073 7.66885 74.6584 7.20898 74.6717 6.74023Z" fill="#2987C5"/><path d="M51.9562 4.50751C52.6804 3.55889 53.5757 3.07459 54.7021 3.09903C55.4885 3.1168 56.2172 3.32118 56.7348 3.98544C57.017 4.34756 57.1191 4.78299 57.1258 5.2162C57.1547 6.82018 57.1436 8.42639 57.1547 10.0326C57.1547 10.1992 57.0814 10.2148 56.9459 10.2148C56.4749 10.2081 56.0039 10.2037 55.5352 10.2148C55.3485 10.2192 55.3197 10.1481 55.3219 9.98372C55.3285 9.10619 55.3308 8.22645 55.3219 7.34892C55.3174 6.68689 55.3041 6.02263 55.2175 5.36504C55.1442 4.80742 54.7309 4.42976 54.1667 4.35422C53.6824 4.2898 53.2425 4.3831 52.8337 4.64081C52.4316 4.89407 52.2428 5.27618 52.1783 5.7316C52.0495 6.63801 52.0761 7.55108 52.0761 8.46193C52.0761 8.97734 52.0695 9.49053 52.0806 10.0059C52.085 10.1703 52.0362 10.2192 51.8718 10.2148C51.4008 10.2037 50.9298 10.2059 50.461 10.2148C50.2989 10.217 50.25 10.1703 50.25 10.0059C50.2544 7.83323 50.2567 5.65829 50.25 3.48558C50.25 3.30785 50.2989 3.25676 50.4744 3.26342C50.8832 3.27453 51.2919 3.2812 51.6985 3.26342C51.9251 3.25231 51.9673 3.34118 51.9584 3.54112C51.9451 3.84104 51.954 4.14095 51.954 4.50973L51.9562 4.50751Z" fill="#2987C5"/><path d="M63.9564 6.66051C63.9319 7.12927 63.9875 7.60691 64.1718 8.06456C64.6339 9.2109 66.2779 9.3242 66.9511 8.58663C67.1288 8.39335 67.2332 8.15564 67.2976 7.91127C67.3443 7.74021 67.422 7.698 67.5775 7.72021C68.0374 7.79352 68.4973 7.86684 68.9571 7.93348C69.1304 7.96014 69.1815 8.02235 69.1171 8.20452C68.6395 9.54858 67.682 10.1773 66.2868 10.3306C65.6337 10.4017 64.9961 10.3572 64.3696 10.1951C63.4054 9.94402 62.7567 9.30198 62.3724 8.4089C61.9014 7.3181 61.9014 6.19176 62.3302 5.09208C62.7545 4.01016 63.6298 3.43255 64.7317 3.19706C65.5981 3.01045 66.4667 3.05932 67.3132 3.34813C68.144 3.63249 68.6861 4.21233 69.0105 5.01432C69.0616 5.13873 69.0571 5.19427 68.8972 5.21648C68.4017 5.28091 67.9063 5.352 67.4176 5.44975C67.2687 5.48085 67.2399 5.41865 67.2154 5.32534C66.9933 4.48336 66.078 4.2812 65.4604 4.38339C64.3785 4.56112 63.9986 5.2898 63.9564 6.26507C63.9519 6.38948 63.9564 6.51389 63.9564 6.65829V6.66051Z" fill="#2987C5"/><path d="M42.6434 5.37645C42.6434 3.86799 42.6501 2.36175 42.6368 0.853297C42.6345 0.588929 42.7167 0.526724 42.9656 0.537832C43.4077 0.557827 43.852 0.54894 44.2963 0.540054C44.4585 0.535611 44.5096 0.582264 44.5096 0.748883C44.5051 3.83467 44.5051 6.92045 44.5096 10.0062C44.5096 10.1728 44.454 10.2173 44.2941 10.2151C43.8231 10.2062 43.3521 10.2017 42.8834 10.2151C42.6723 10.2217 42.6368 10.1395 42.6368 9.95069C42.6434 8.42668 42.6412 6.90045 42.6412 5.37422L42.6434 5.37645Z" fill="#2987C5"/><path d="M58.8306 6.72705C58.8306 5.66291 58.8351 4.59877 58.8262 3.53463C58.8262 3.33691 58.8573 3.25249 59.0839 3.26137C59.5437 3.27915 60.0058 3.27026 60.4679 3.2636C60.6168 3.2636 60.6945 3.28581 60.6923 3.46354C60.6856 5.64514 60.6879 7.82673 60.6923 10.0083C60.6923 10.1749 60.6279 10.2194 60.4702 10.2172C59.9992 10.2083 59.5304 10.2061 59.0594 10.2172C58.8639 10.2238 58.8262 10.1483 58.8284 9.97278C58.8351 8.89087 58.8328 7.80896 58.8328 6.72705H58.8306Z" fill="#2987C5"/><path d="M48.2898 6.75819C48.2898 7.83122 48.2854 8.90425 48.2943 9.97727C48.2943 10.1594 48.2521 10.2216 48.061 10.2172C47.5989 10.2039 47.1391 10.2083 46.677 10.2172C46.5281 10.2194 46.457 10.1972 46.457 10.0195C46.4615 7.83788 46.4615 5.65629 46.457 3.47691C46.457 3.31918 46.497 3.26142 46.6659 3.26586C47.1368 3.27697 47.6056 3.27919 48.0766 3.26586C48.2587 3.26142 48.2965 3.32362 48.2943 3.49024C48.2876 4.58104 48.2898 5.67184 48.2898 6.76264V6.75819Z" fill="#2987C5"/><path d="M49.0569 0.375366C48.768 0.952979 48.5015 1.48394 48.2393 2.0149C48.2104 2.07488 48.1793 2.12598 48.1082 2.12375C47.5884 2.1082 47.073 2.22373 46.5176 2.1593C46.8042 1.58835 47.0796 1.0374 47.3551 0.484224C47.3929 0.406469 47.4551 0.370923 47.5484 0.373145C48.0349 0.377588 48.5215 0.373145 49.0569 0.373145V0.375366Z" fill="#2987C5"/><path d="M59.7566 2.07248C59.4989 2.07248 59.2412 2.06804 58.9834 2.07248C58.8724 2.07248 58.8279 2.03916 58.8302 1.92142C58.8368 1.51264 58.8346 1.10609 58.8302 0.697322C58.8302 0.581799 58.8701 0.541811 58.9857 0.544032C59.5011 0.548476 60.0143 0.548476 60.5297 0.544032C60.6652 0.544032 60.6896 0.612902 60.6896 0.728424C60.6852 1.11942 60.683 1.5082 60.6896 1.8992C60.6941 2.04805 60.6296 2.07915 60.5008 2.0747C60.252 2.06804 60.0032 2.0747 59.7543 2.0747L59.7566 2.07248Z" fill="#2987C5"/><script xmlns=""/><script xmlns="" id="bw-fido2-page-script"/></svg>